<svg xmlns="http://www.w3.org/2000/svg" viewBox="0 0 203.12 203.12"><defs><style>.cls-1{fill:#fff;}</style></defs><g id="Layer_2" data-name="Layer 2"><g id="vimeo"><g id="Layer_4" data-name="Layer 4"><circle id="background_vimeo" class="cls-1" cx="101.56" cy="101.56" r="101.56"/></g><g id="Layer_3" data-name="Layer 3"><path id="vimeo_path" d="M136.43,57.9c-16.67,0-25.85,9.32-31.5,27.52,2.95-1.09,5.91-2.44,8.6-2.44,5.65,0,7.53,2.1,6.72,8.62-.27,4.07-1.88,10.65-6.72,18.25-4.84,7.34-9,9.42-11.47,9.42-3,0-5.2-4.25-7.61-15.66-.81-3.26-2.69-10.6-4.84-24.44-1.88-12.76-8.14-19.63-17-18.81-3.75.26-8.25,3.76-15.78,10.28C51.44,75.53,46.34,79.06,40.69,84l5.38,6.9c5.1-3.53,8.07-4.89,8.87-4.89,3.76,0,7.25,6,10.75,18.2,3,11.13,6.18,22.26,9.14,33.39,4.56,12.23,10.21,18.2,16.66,18.2,10.75,0,23.65-9.77,39-29.87,15-19,22.61-34.75,23.15-45.89C154.15,65.33,148.25,58.17,136.43,57.9Z"/></g></g></g></svg>