<svg xmlns="http://www.w3.org/2000/svg" viewBox="0 0 201.8 201.8"><defs><style>.cls-1{fill:#fff;}</style></defs><g id="Layer_2" data-name="Layer 2"><g id="behance"><g id="Layer_7" data-name="Layer 7"><circle id="background_behance" class="cls-1" cx="100.9" cy="100.9" r="100.9"/></g><g id="Layer_6" data-name="Layer 6"><path id="behance_path" d="M154.5,74.93H121.28V66.74l33.22.18Zm13.83,51.14c-2.42,7.11-12.35,19.57-29.19,19.57s-29.5-9.48-29.5-31.11c0-21.43,11.75-32.45,29-32.45,16.89,0,27.21,9.77,29.46,24.26a72.83,72.83,0,0,1,.52,11.73h-44c.71,17.61,20.32,15,26.37,8ZM125,107.27h27.22c-.57-8.48-6.23-12.17-13.58-12.17C130.58,95.1,126.13,99.31,125,107.27ZM76.49,145.58H40.06V63.53h39.1c30,.44,30.59,29.84,14.91,37.86C113,108.29,113.68,145.58,76.49,145.58ZM58.28,96.31H77.42c13.39,0,15.52-18.68-1.67-18.68H58.28Zm19.66,13.61H58.28V131.7H77.65C95.37,131.7,94.29,109.92,77.94,109.92Z"/></g></g></g></svg>