<svg xmlns="http://www.w3.org/2000/svg" viewBox="0 0 80.47 47.21"><defs><style>.cls-1{fill:#424242;}</style></defs><g id="Layer_2" data-name="Layer 2"><g id="Sandwich"><path class="cls-1" d="M80.47,0c-.09.1-.18.21-.27.3L70.58,9.9c-.41.41-.25.34-.82.34H0c-.06-.09,0-.14,0-.19L.3,9.82Q5.07,5.07,9.83.3A3.85,3.85,0,0,0,10.1,0Z"/><path class="cls-1" d="M70.26,28.71H0c0-.05,0-.06,0-.07s0,0,0,0L10.18,18.48s0,0,0,0H80.35l0,0s0,.07,0,.08Z"/><path class="cls-1" d="M80.45,37l-.29.32-9.65,9.63a1.85,1.85,0,0,0-.14.14.34.34,0,0,1-.3.12H0c0-.11,0-.16.06-.2l.2-.21,9.5-9.48a.68.68,0,0,0,.12-.12.57.57,0,0,1,.57-.23H79.85A2.58,2.58,0,0,1,80.45,37Z"/></g></g></svg>