<svg xmlns="http://www.w3.org/2000/svg" viewBox="0 0 433.56 47.21"><defs><style>.cls-1{fill:#424242;}</style></defs><g id="Layer_2" data-name="Layer 2"><g id="Logo"><path class="cls-1" d="M61.48,0c-.09.1-.16.22-.25.31C60.14,1.41,59,2.5,58,3.59L51.7,9.83c-.06.06-.12.11-.17.17a.62.62,0,0,1-.58.24H10.77a1.82,1.82,0,0,0-.57,0,.93.93,0,0,0,0,.13v7.88a1.55,1.55,0,0,0,0,.17,1.77,1.77,0,0,0,.21,0H61.52c0,.1,0,.18,0,.25V36.93l-.22.24q-4.91,4.9-9.82,9.81a.69.69,0,0,1-.57.23H0V47c.19,0,.3-.19.42-.31l9.39-9.37c.47-.47.29-.38.92-.38H51l.23,0c.06-.36.09-4.16,0-7.81,0-.12,0-.24,0-.36a1.46,1.46,0,0,0-.58-.05H0V10a.58.58,0,0,0,.19,0l.26-.26L9.84.34l.22-.23a.22.22,0,0,0,0-.11Z"/><path class="cls-1" d="M213.69,0a5.74,5.74,0,0,1-.41.45l-27.76,27.7L166.71,46.91a.91.91,0,0,1-.71.3H152.64l-.46,0a1.27,1.27,0,0,1-.07-.24c0-.12,0-.24,0-.37V22.79c0-1.27,0-2.55,0-3.82a1.09,1.09,0,0,1,.05-.44.86.86,0,0,1,.45-.05h9.28l.42,0c0,.09,0,.15,0,.21s0,.31,0,.46V36.36a1.83,1.83,0,0,0,0,.47c.1.06.14,0,.19,0l.21-.21L188.9,10.69a1.7,1.7,0,0,0,.34-.37l0-.06H152.26l0,0a.24.24,0,0,1,.05-.1l.28-.29L162,.34c.1-.11.19-.23.28-.34Z"/><path class="cls-1" d="M357.77,0c0,.19,0,.38,0,.57v35.9c0,.52.06.4-.33.78q-4.76,4.77-9.53,9.52a3.5,3.5,0,0,1-.28.27c-.12,0-.1-.1-.1-.16s0-.27,0-.41V20.09q0-4.66,0-9.31a1.49,1.49,0,0,0,0-.51,2,2,0,0,0-.24,0H306.36c0,.1,0,.18-.05.25V36.44c0,.62.07.43-.35.85l-9.47,9.46a1.65,1.65,0,0,1-.34.31c-.1-.05-.08-.11-.08-.16s0-.24,0-.37V10.8c0-.64-.09-.45.39-.92L306,.33l.31-.33Z"/><path class="cls-1" d="M433.55,0a.37.37,0,0,1-.12.37l-.17.17-9.41,9.4c-.35.35-.24.3-.72.3h-16a1.47,1.47,0,0,0-.05.26c0,.13,0,.27,0,.41v26c0,.06,0,.07,0,.08l0,0-9.93,9.92L397,47l0,0-.07,0c0-.06,0-.13,0-.19v-36a2.31,2.31,0,0,0,0-.58l-.25,0H372.34c-.06-.1,0-.15.05-.2l.26-.26L382.09.35l.34-.35Z"/><path class="cls-1" d="M137.59,0c-.07.08-.13.18-.2.25L127.63,10a.65.65,0,0,1-.57.24H76.65a3.33,3.33,0,0,1-.54,0,.37.37,0,0,1,.07-.13l.23-.24L85.94.34c.1-.1.18-.23.28-.34Z"/><path class="cls-1" d="M281.58,0l-.27.3-9.62,9.6c-.41.41-.25.34-.82.34H220.14c-.06-.09,0-.14,0-.19s.16-.15.23-.23q4.77-4.75,9.53-9.52a3.85,3.85,0,0,0,.27-.3Z"/><path class="cls-1" d="M137.55,18.49c0,.08-.05.12-.07.15s-.17.17-.26.26l-9.53,9.51c-.35.36-.23.3-.71.3H76.13a.54.54,0,0,1,0-.11l10.12-10.1Z"/><path class="cls-1" d="M271.37,28.71H220.13c0-.05,0-.06,0-.07a.06.06,0,0,1,0,0l10.17-10.12h51.17l0,0s0,.07,0,.08Z"/><path class="cls-1" d="M281.56,37l-.3.32-9.64,9.63-.15.14a.32.32,0,0,1-.29.12h-51c0-.11,0-.16.06-.2l.2-.21,9.5-9.48.12-.12a.57.57,0,0,1,.57-.23H281A2.6,2.6,0,0,1,281.56,37Z"/><path class="cls-1" d="M137.58,37a1.85,1.85,0,0,1-.13.19c-.08.09-.17.17-.26.26l-9.53,9.52-.11.11a.44.44,0,0,1-.4.17H76.69a1.73,1.73,0,0,1-.51,0c-.05-.1,0-.14.06-.19s.17-.17.26-.26l9.44-9.43a1.85,1.85,0,0,0,.14-.14.5.5,0,0,1,.51-.2h51Z"/></g></g></svg>